<?xml version="1.0" standalone="no"?>
<!DOCTYPE svg PUBLIC "-//W3C//DTD SVG 20010904//EN"
 "http://www.w3.org/TR/2001/REC-SVG-20010904/DTD/svg10.dtd">
<svg version="1.0" xmlns="http://www.w3.org/2000/svg"
 width="418.000000pt" height="418.000000pt" viewBox="0 0 418.000000 418.000000"
 preserveAspectRatio="xMidYMid meet">
<metadata>
Created by potrace 1.14, written by Peter Selinger 2001-2017
</metadata>
<g transform="translate(0.000000,418.000000) scale(0.100000,-0.100000)"
fill="#000000" stroke="none">
<path d="M767 3522 c-15 -16 -27 -34 -27 -41 0 -7 -10 -11 -24 -9 -28 3 -76
-36 -76 -62 0 -13 -6 -16 -26 -12 -17 3 -33 -3 -50 -18 -24 -23 -24 -24 -24
-226 l0 -202 50 -12 49 -12 3 -51 3 -51 48 -14 47 -13 0 -49 0 -49 48 -13 47
-14 3 -51 3 -51 49 -12 50 -12 0 -68 c0 -67 0 -67 -26 -62 -17 3 -33 -3 -50
-18 -24 -23 -24 -24 -24 -226 l0 -202 50 -12 50 -12 0 -104 c0 -77 3 -104 13
-104 6 0 29 -5 50 -11 36 -10 37 -11 37 -59 l0 -49 48 -14 47 -14 3 -51 3 -50
49 -12 50 -12 0 -52 0 -51 98 -25 97 -25 3 -53 c2 -28 5 -52 6 -52 2 0 113
-29 247 -65 l243 -65 28 27 c15 15 28 33 28 41 0 8 8 12 23 10 19 -3 22 -10
25 -55 l3 -52 47 -13 47 -14 3 -100 3 -100 49 -13 49 -13 3 -51 3 -51 45 -12
c25 -6 90 -23 144 -38 l99 -27 29 27 c15 15 28 34 28 42 0 10 7 13 22 9 26 -7
78 36 78 65 0 14 4 16 24 8 19 -7 28 -4 50 19 14 15 26 35 26 45 0 13 5 16 21
11 23 -8 79 37 79 63 0 10 7 13 22 9 26 -7 78 36 78 65 0 14 4 16 24 8 19 -7
28 -4 50 19 14 15 26 35 26 45 0 13 5 16 21 11 15 -5 29 1 50 21 26 25 29 34
29 92 0 62 1 64 22 59 16 -5 31 1 50 20 25 24 28 34 28 95 0 67 0 67 24 58 19
-7 28 -4 50 19 25 26 26 33 26 129 0 75 -3 102 -12 102 -7 0 -30 5 -50 10
l-37 11 -3 101 -3 102 -45 11 -45 11 -3 52 c-3 51 -3 52 -45 62 -23 6 -68 18
-99 27 l-58 16 0 51 0 52 -50 10 c-47 10 -51 9 -75 -16 -21 -22 -25 -35 -25
-92 0 -64 0 -65 -25 -60 l-25 4 0 202 0 202 -50 13 -50 13 0 154 c0 143 -1
154 -19 154 -10 0 -32 5 -50 11 -29 10 -31 14 -31 60 0 47 -1 48 -37 58 -21 6
-44 11 -50 11 -9 0 -13 17 -13 54 l0 54 -50 12 -50 12 0 52 0 51 -100 24 -100
25 -25 -24 c-14 -13 -25 -32 -25 -43 0 -13 -5 -17 -16 -13 -9 3 -20 6 -25 6
-5 0 -9 24 -9 53 l0 52 -146 38 -145 37 -29 -22 c-16 -13 -29 -31 -29 -40 -1
-10 -3 -18 -7 -18 -3 0 -57 14 -120 31 l-114 30 -30 -23 c-16 -13 -29 -31 -29
-42 -1 -14 -6 -17 -23 -13 -25 7 -78 -35 -78 -61 0 -8 -8 -12 -22 -10 -20 3
-23 10 -26 55 l-3 51 -49 12 -50 12 0 54 c0 37 -4 54 -12 54 -7 0 -30 5 -50
10 -36 10 -37 12 -40 62 l-3 51 -120 32 c-66 17 -132 35 -146 38 -20 5 -32 0
-52 -21z m178 -179 c11 -3 37 -9 57 -14 36 -9 37 -11 40 -61 l3 -52 45 -11 45
-11 3 -52 3 -52 44 -11 44 -11 3 -51 3 -50 48 -14 47 -14 0 -49 c0 -48 1 -49
38 -59 20 -6 43 -11 50 -11 8 0 12 -17 12 -53 l0 -54 55 -15 55 -15 0 104 c0
65 -4 102 -10 98 -5 -3 -28 -1 -50 5 l-40 11 0 105 c0 96 2 105 18 100 9 -3
62 -17 117 -31 176 -46 165 -39 165 -95 l0 -49 43 -12 c23 -6 45 -13 50 -16 4
-2 7 20 7 50 l0 53 -50 13 -50 13 0 49 c0 46 1 49 23 43 12 -3 76 -20 142 -37
l120 -32 3 -51 3 -51 54 -15 55 -15 0 49 0 50 30 -7 c17 -4 58 -15 93 -24 l62
-18 3 -50 3 -50 52 -14 52 -14 3 -51 c3 -48 5 -52 35 -62 l32 -11 -32 5 -33 6
0 -46 c0 -30 4 -46 13 -46 6 0 29 -5 49 -10 l37 -11 3 -102 3 -101 48 -14 47
-13 0 -200 0 -199 45 -12 45 -12 0 -53 c0 -59 -6 -63 -65 -39 l-35 15 0 -53 0
-54 -40 10 c-23 6 -43 8 -46 5 -3 -3 -7 -65 -9 -139 -1 -73 -1 -112 2 -85 2
26 5 47 6 47 1 0 23 -7 50 -15 l47 -14 0 51 c0 44 2 49 18 43 9 -3 29 -9 44
-12 25 -5 27 -10 31 -57 2 -28 4 15 5 97 1 81 5 147 10 147 4 0 24 -5 44 -10
36 -10 37 -12 41 -63 2 -30 4 -12 5 46 2 113 -6 107 117 73 l80 -22 3 -50 3
-51 47 -14 47 -14 3 -51 3 -51 42 -9 42 -9 9 -98 c5 -54 6 -100 4 -102 -3 -3
-25 1 -50 9 l-46 13 -7 -99 c-6 -86 -9 -98 -24 -93 -9 4 -28 9 -42 12 l-26 5
-8 -96 c-4 -53 -10 -96 -13 -96 -4 0 -24 5 -44 10 -36 10 -37 12 -41 63 l-3
52 -2 -56 -2 -57 -42 11 c-24 6 -46 15 -50 21 -4 6 -8 -15 -8 -47 0 -51 -2
-58 -17 -53 -10 3 -30 8 -45 12 -26 6 -28 10 -30 63 l-2 56 -3 -52 c-4 -57 -9
-60 -61 -42 -29 10 -31 14 -35 67 -2 33 -4 13 -5 -49 l-2 -106 -45 10 -45 10
-2 61 -2 61 -3 -58 c-3 -49 -7 -57 -21 -53 -9 3 -29 8 -44 12 l-28 6 -2 157
c-2 123 -3 134 -5 54 -4 -112 -4 -112 -62 -92 l-31 11 0 154 c0 169 -3 163 63
140 l37 -14 0 98 0 97 -32 6 c-18 3 -41 8 -50 12 -16 6 -18 1 -18 -38 l0 -44
47 -14 c26 -7 41 -15 35 -17 -7 -2 -27 1 -45 8 -17 6 -45 14 -62 17 -16 2 -42
11 -57 18 l-28 13 0 -54 c0 -48 -2 -55 -17 -50 -10 3 -30 8 -45 12 -26 6 -28
10 -30 63 l-2 56 -3 -52 c-4 -58 -7 -60 -65 -39 l-38 14 0 -54 0 -53 -42 13
-43 12 -6 59 c-5 49 -6 41 -7 -48 -2 -98 -4 -108 -19 -103 -10 3 -30 8 -45 12
-26 6 -28 10 -30 63 l-2 56 -3 -53 c-2 -28 -7 -52 -11 -52 -4 0 -24 5 -44 11
-38 10 -38 10 -40 67 l-2 57 -3 -56 -4 -57 -42 13 -42 12 -6 59 -6 59 -1 -58
c-2 -50 -4 -58 -19 -53 -10 3 -30 8 -45 12 l-28 6 -2 107 -2 106 -3 -102 c-2
-57 -7 -103 -11 -103 -4 0 -24 5 -44 11 l-38 10 -2 107 c-1 61 -3 83 -5 51
l-4 -57 -42 13 -42 12 -3 107 c-2 99 -1 107 15 102 10 -3 51 -14 90 -25 40
-11 77 -22 83 -26 7 -4 9 47 8 152 -1 87 -3 132 -5 101 -2 -32 -7 -58 -11 -58
-4 0 -24 5 -44 11 l-38 10 -2 157 c-2 129 -3 138 -5 51 l-4 -107 -42 13 -42
12 -5 159 c-5 145 -6 150 -8 50 -2 -98 -4 -108 -19 -101 -10 3 -30 9 -45 12
l-28 6 -2 156 c-2 123 -3 134 -5 54 -2 -57 -7 -103 -11 -103 -4 0 -24 5 -44
11 l-38 10 -2 157 c-2 125 -3 136 -5 53 l-4 -103 -37 7 c-20 4 -40 9 -44 11
-5 3 -9 76 -10 162 -2 133 -3 140 -5 49 -3 -98 -5 -108 -21 -102 -9 3 -29 9
-44 12 l-28 6 -2 156 c-2 123 -3 134 -5 54 -2 -57 -7 -103 -11 -103 -4 0 -24
5 -44 11 l-38 10 -2 157 c-2 125 -3 136 -5 53 l-4 -103 -37 7 c-20 4 -40 9
-44 11 -5 3 -9 76 -10 162 -2 128 -3 138 -5 51 l-4 -106 -44 10 -45 10 0 155
0 154 36 -6 c19 -4 42 -10 50 -13 11 -4 14 6 14 45 l0 51 93 -26 c50 -14 101
-27 112 -30z m483 -376 c3 -52 3 -51 -50 -36 -37 10 -38 11 -38 59 l0 49 43
-13 c41 -12 42 -13 45 -59z m-406 -743 c5 -3 8 -30 8 -61 0 -48 -2 -54 -17
-48 -10 3 -30 9 -45 12 -26 5 -28 9 -28 60 l0 55 37 -7 c21 -4 41 -9 45 -11z
m116 -82 l3 -51 47 -13 47 -14 3 -52 c2 -32 8 -52 15 -52 7 0 39 -9 72 -20 33
-11 50 -18 38 -16 -21 4 -22 -1 -29 -96 -6 -86 -9 -98 -23 -93 -9 4 -28 9 -43
12 -26 5 -28 9 -30 62 l-2 56 -3 -52 c-2 -29 -7 -53 -11 -53 -4 0 -24 5 -44
11 l-38 10 -2 107 c-1 59 -3 83 -5 53 l-4 -53 -37 7 c-20 4 -40 9 -44 11 -5 3
-8 74 -8 159 l0 153 48 -12 47 -12 3 -52z m-113 -124 c7 -8 4 -9 -10 -4 -11 4
-32 10 -47 13 -16 3 -28 9 -28 13 0 11 72 -9 85 -22z m399 -107 c4 -5 -3 -7
-14 -4 -23 6 -26 13 -6 13 8 0 17 -4 20 -9z m96 -23 c10 -6 3 -7 -20 -2 -19 3
-42 10 -50 16 -10 6 -3 7 20 2 19 -3 42 -10 50 -16z m-405 -90 c13 -5 7 -6
-20 -2 -22 3 -44 10 -50 15 -11 11 35 3 70 -13z m1515 -108 c0 -4 -20 -3 -45
3 -25 6 -45 13 -45 17 0 4 20 3 45 -3 25 -6 45 -13 45 -17z m-1410 -22 c10 -6
3 -7 -20 -2 -19 3 -42 10 -50 16 -10 6 -3 7 20 2 19 -3 42 -10 50 -16z m107
-32 c5 -5 0 -6 -12 -2 -11 4 -32 10 -47 13 -16 3 -28 9 -28 13 0 10 75 -12 87
-24z m76 -112 c15 -3 27 -10 27 -14 0 -9 -75 11 -87 24 -4 5 1 6 12 3 11 -3
32 -9 48 -13z m927 -55 c0 -9 -71 9 -83 21 -5 4 12 3 37 -3 25 -6 46 -14 46
-18z m-210 -41 c10 -6 3 -7 -20 -2 -19 3 -42 10 -50 16 -10 6 -3 7 20 2 19 -3
42 -10 50 -16z m105 -29 c11 -11 -35 -3 -70 13 -13 5 -7 6 20 2 22 -3 45 -10
50 -15z m-600 -40 c11 -11 -35 -3 -70 13 -13 5 -7 6 20 2 22 -3 45 -10 50 -15z
m378 4 c15 -3 27 -9 27 -13 0 -11 -72 9 -85 22 -7 8 -4 9 10 4 11 -4 32 -10
48 -13z m-300 -20 c15 -3 27 -9 27 -13 0 -10 -75 12 -87 24 -5 5 0 6 12 2 11
-4 32 -10 48 -13z m417 -15 c10 -6 3 -7 -20 -2 -19 3 -42 10 -50 16 -10 6 -3
7 20 2 19 -3 42 -10 50 -16z m-300 -20 c10 -6 3 -7 -20 -2 -19 3 -42 10 -50
16 -10 6 -3 7 20 2 19 -3 42 -10 50 -16z m105 -29 c11 -11 -35 -3 -70 13 -13
5 -7 6 20 2 22 -3 45 -10 50 -15z m399 -10 c5 -4 -8 -3 -30 2 -21 6 -41 13
-44 16 -9 9 65 -9 74 -18z m6 -100 c0 -9 -71 9 -83 21 -5 4 12 3 37 -3 25 -6
46 -14 46 -18z m0 -100 c0 -9 -71 9 -83 21 -5 4 12 3 37 -3 25 -6 46 -14 46
-18z m70 -14 c23 -9 28 -14 15 -14 -11 0 -33 6 -50 14 -39 17 -11 18 35 0z
m-70 -86 c0 -9 -71 9 -83 21 -5 4 12 3 37 -3 25 -6 46 -14 46 -18z m370 6 c23
-9 28 -14 15 -14 -11 0 -33 6 -50 14 -39 17 -11 18 35 0z m-300 -20 c23 -9 28
-14 15 -14 -11 0 -33 6 -50 14 -39 17 -11 18 35 0z m125 -36 c11 -11 -35 -3
-70 13 -13 5 -7 6 20 2 22 -3 45 -10 50 -15z m105 -29 c0 -4 -20 -3 -45 3 -25
6 -45 13 -45 17 0 4 20 3 45 -3 25 -6 45 -13 45 -17z m-230 -35 c23 -9 28 -14
15 -14 -11 0 -33 6 -50 14 -39 17 -11 18 35 0z"/>
<path d="M1842 2849 c3 -40 5 -42 48 -55 25 -8 46 -14 48 -14 1 0 2 22 2 48 0
39 -3 48 -17 48 -10 0 -33 4 -51 8 l-33 8 3 -43z"/>
<path d="M2140 2671 l0 -49 50 -12 49 -12 3 -51 3 -51 48 -14 47 -13 0 -49 0
-49 43 -12 c23 -6 45 -13 50 -16 4 -2 7 21 7 51 0 38 -4 56 -12 56 -7 0 -30 5
-50 10 l-37 11 -3 101 -3 101 -85 23 c-47 13 -91 23 -97 24 -9 0 -13 -16 -13
-49z"/>
<path d="M1942 2528 l3 -51 48 -14 47 -14 0 -49 0 -49 48 -13 47 -14 3 -51 3
-51 44 -11 c24 -6 46 -11 49 -11 3 0 6 22 6 49 l0 49 -50 13 -50 13 0 101 0
100 -100 27 -101 26 3 -50z"/>
<path d="M1642 2408 l3 -51 48 -14 47 -14 0 -49 0 -49 53 -15 c28 -8 73 -20
99 -26 l47 -12 3 -51 c3 -50 3 -50 48 -63 25 -8 46 -14 48 -14 2 0 2 23 0 52
l-3 52 -45 11 -45 11 -3 51 -3 51 -49 13 -50 13 0 51 0 51 -100 26 -101 26 3
-50z"/>
<path d="M2333 2120 c0 -30 2 -43 4 -27 2 15 2 39 0 55 -2 15 -4 2 -4 -28z"/>
</g>
</svg>
